<mxfile host="app.diagrams.net" modified="2024-03-01T13:15:52.848Z" agent="Mozilla/5.0 (Macintosh; Intel Mac OS X 10_15_7) AppleWebKit/537.36 (KHTML, like Gecko) Chrome/122.0.0.0 Safari/537.36" version="23.1.7" etag="BRm4pagZkHhTarW4YodY" type="github">
  <diagram name="第 1 页" id="Q1kT1dyLCPE2SHC8k_t-">
    <mxGraphModel>
      <root>
        <mxCell id="0" />
        <mxCell id="1" parent="0" />
      </root>
    </mxGraphModel>
  </diagram>
</mxfile>
